<svg width="388" height="388" viewBox="0 0 388 388" fill="none" xmlns="http://www.w3.org/2000/svg">
<path d="M20 193.996C20 217.203 38.1006 239.032 70.9634 255.448C103.834 271.864 147.523 280.898 194 280.898C240.477 280.898 284.174 271.864 317.037 255.448C349.907 239.032 368 217.211 368 193.996" stroke="#043915" stroke-miterlimit="10"/>
<path d="M194 367.992C290.098 367.992 368 290.092 368 193.996C368 97.9007 290.098 20 194 20C97.9025 20 20 97.9007 20 193.996C20 290.092 97.9025 367.992 194 367.992Z" stroke="#043915" stroke-miterlimit="10"/>
<path d="M194 20V368" stroke="#043915" stroke-miterlimit="10"/>
<path d="M193.818 44.5552C217.462 70.9245 240.67 120.455 254.674 179.656C276.794 273.174 267.56 355.405 234.054 363.33" stroke="#043915" stroke-miterlimit="10"/>
<path d="M193.818 44.5552C229.116 56.4918 264.528 81.6591 292.491 117.791C351.302 193.79 354.893 289.52 300.5 331.609" stroke="#043915" stroke-miterlimit="10"/>
<path d="M367.625 194.004C367.625 154.083 349.57 116.55 316.776 88.3279C283.982 60.0981 240.385 44.5552 194.008 44.5552" stroke="#043915" stroke-miterlimit="10"/>
<path d="M194.001 44.5552H193.809" stroke="#043915" stroke-miterlimit="10"/>
<path d="M193.817 44.5552C170.173 70.9245 146.965 120.455 132.961 179.656C110.84 273.174 120.074 355.405 153.58 363.33" stroke="#043915" stroke-miterlimit="10"/>
<path d="M193.817 44.5552C158.519 56.4918 123.107 81.6591 95.144 117.791C36.3324 193.79 32.7414 289.52 87.1351 331.609" stroke="#043915" stroke-miterlimit="10"/>
<path d="M193.625 44.5552C147.248 44.5552 103.65 60.0981 70.8564 88.3279C38.0625 116.55 20.0078 154.075 20.0078 194.004" stroke="#043915" stroke-miterlimit="10"/>
<path d="M193.816 44.5552H193.625" stroke="#043915" stroke-miterlimit="10"/>
<path d="M233.67 24.6703C221.374 21.7608 207.523 29.2643 193.817 44.5545" stroke="#043915" stroke-miterlimit="10"/>
<path d="M300.116 56.3916C271.587 34.3099 232.767 31.3775 193.817 44.5545" stroke="#043915" stroke-miterlimit="10"/>
<path d="M153.955 24.6703C166.252 21.7608 180.103 29.2643 193.809 44.5545" stroke="#043915" stroke-miterlimit="10"/>
<path d="M87.5098 56.3916C116.039 34.3099 154.859 31.3775 193.809 44.5545" stroke="#043915" stroke-miterlimit="10"/>
</svg>
